/* XPM */
static const char *xpm__[] = {
/* columns rows colours chars-per-pixel */
"64 64 20 1 ",
"  c #110100",
". c #282722",
"X c #2A464C",
"o c #2B5E6B",
"O c #787A79",
"+ c #515453",
"@ c #443A32",
"# c #2E758B",
"$ c #3289A5",
"% c #35ACD3",
"& c #37B8E3",
"* c #349EC1",
"= c #609EB5",
"- c #989EA2",
"; c #D1DEE7",
": c #DAE7F0",
"> c #F5F8FA",
", c #CECECE",
"< c #B2BEC9",
"1 c #807E7D",
/* pixels */
"%%%%%%%%%%%%%%%%%%%%%%%%%%%%%%%%%%%%%%%%%%%%%%%%%%%%%%%%%%%%%%%%",
"%%%%%%%%%%%%%%%%%%%%%%%%%%%%%%%%%%%%%%%%%%%%%%%%%%%%%%%%%%%%%%%%",
"%%%%%%%%%%%%%%%%%%%%%%%%%%%%%%%%%%%%%%%%%%%%%%%%%%%%%%%%%%%%%%%%",
"%%%%%%%%%%%%%%%%%%%%%%%%%%%%%%%%%%%%%%%%%%%%%%%%%%%%%%%%%%%%%%%%",
"%%%%%%%%%%%%%%%%%%%%%%%%%%%%%%%%%%%%%%%%%%%%%%%%%%%%%%%%%%%%%%%%",
"%%%%%%%%%%%%%%%%%%%%%%%%%%%%%%%%%%%%%%%%%%%%%%%%%%%%%%%%%%%%%%%%",
"%%%%%%%%%%%%%%%%%%%%%%%%%%%%%%%%%%%%%%%%%%%%%%%%%%%%%%%%%%%%%%%%",
"%%%%%%%%%%%%%%%%%%%%%%%%%%%%%%%%%%%%%%%%%%%%%%%%%%%%%%%%%%%%%%%%",
"%%%%%%%%%%%%%%%%%%%%%%%%%%%%%%%%%%%%%%%%%%%%%%%%%%%%%%%%%%%%%%%%",
"%%%%%%%%%%%%%%%%%%%%%%%%%%%%%%%%%%%%%%%%%%%%%%%%%%%%%%%%%%%%%%%%",
"%%%%%%%%%%%%%%%%%%%%%%%%%%%%%%%%%%%%%%%%%%%%%%%%%%%%%%%%%%%%%%%%",
"%%%%%%%%%%%%%%%%%%%%%%%%%%%%%%%%%%%%%%%%%%%%%%%%%%%%%%%%%%%%%%%%",
"%%%%%%%%%%%%%%%%%%%%%%%%%%%%%%%%%%%%%%%%%%%%%%%%%%%%%%%%%%%%%%%%",
"%%%%%%%%%%%%%%%%%%%%%%%%%%%%%%%%%%%%%%%%%%%%%%%%%%%%%%%%%%%%%%%%",
"%%%%%%%%%%%%%%%%%%%%%%%%%%%%%%%%%%%%%%%%%%%%%%%%%%%%%%%%%%%%%%%%",
"%%%%%%%%%%%%%%%%%%%%%%&&&&&&&&&&&&&&%%%%%%%%%%%%%%%%%%%%%%%%%%%%",
"%%%%%%%%%%%%%%%%%%%%%$$$$$$$$$$$$$$#*%%%%%%%%%%%%%%%%%%%%%%%%%%%",
"%%%%%%%%%%%%%%%%%%%%&.              #&%%%%%%%%%%%%%%%%%%%%%%%%%%",
"%%%%%%%%%%%%%%%%%%%**X@@@@@@@@@@... #**%%%%%%%%%%%%%%%%%%%%%%%%%",
"%%%%%%%%%%%%%%%%%%%. <>>>>>>>>>>;;@   o&%%%%%%%%%%%%%%%%%%%%%%%%",
"%%%%%%%%%%%%%%%%%**. ,>>>>>>>>>>;;@   o&%%%%%%%%%%%%%%%%%%%%%%%%",
"%%%%%%%%%%%%%%%%*..,>;;;;;;;;;;;;;,;+ o&%%%%%%%%%%%%%%%%%%%%%%%%",
"%%%%%%%%%%%%%%%%*  ;>:;;;;;;;;;;;;;:+ o&%%%%%%%%%%%%%%%%%%%%%%%%",
"%%%%%%%%%%%%%%%%*  ;>:;;;;;;;;;;;;;:+ ...........$%%%%%%%%%%%%%%",
"%%%%%%%%%&&&&&&&%  ;>:;;;;;;;;;;;;;:@            $&%%%%%%%%%%%%%",
"%%%%%%%%oXXXXXXXX  ;>:;;;;;;;;;;;;;:-------------+X$%%%%%%%%%%%%",
"%%%%%%%&X          ;>:;;;;;;;;;;;;;;:::::::::::::@ #&%%%%%%%%%%%",
"%%%%%%#oO----------;>;;;;;;;;;;;;;;;;;;;;;;;;;;;;-Ooo$%%%%%%%%%%",
"%%%%&&. ->>>>>>>>>>:;;;;;;;;;;;;;;;;;;;;;;;;;;;;;:>+ o&&&&%%%%%%",
"%%%%##O+<>::::::>>>:;;;;;;;;;;;;;;;;;;;;;;;;;;;;;;:+ X###$%%%%%%",
"%%%*. ,>:;;;;;;;;;;;;;;;;;;;;;;;;;;;;;;;;;;;;;;;;;:+     .&&%%%%",
"%%%%. ,>:;;;;;;;;;;;;;;;;;;;;;;;;;;;;;;;;;;;;;;;;;:O@@@@@X$$%%%%",
"%%%%. ,>:;;;;;;;;;;;;;;;;;;;;;;;;;;;;;;;;;;;;;;;;;;::::,-1 .*%%%",
"%%%%. ,>:;;;;;;;;;;;;;;;;;;;;;;;;;;;;;;;;;;;;;;;;;;;;;;<-1 .%%%%",
"%%%%. ,>:;;;;;;;;;;;;;;;;;;;;;;;;;;;;;;;;;;;;;;;;;;;;;:<-1 .*%%%",
"%%%%. ,>:;;;;;;;;;;;;;;;;;;;;;;;;;;;;;;;;;;;;;;;;;;;;;:<-1 .%%%%",
"%%%%. ,>:;;;;;;;;;;;;;;;;;;;;;;;;;;;;;;;;;;;;;;;;;;;;;:<-1 .%%%%",
"%%%%. ,>:;;;;;;;;;;;;;;;;;;;;;;;;;;;;;;;;;;;;;;;;;;;;;:<-1 .%%%%",
"%%%%$$+@<>:;;;;;;;;;;;;;;;;;;;;;;;;;;;;;;;;;;;;;;;;<-<<--1 .%%%%",
"%%%%%&. ->>::;;;;;;;;;;;;;;;;;;;;;;;;;;;;;;;;;;::::<----<- .*%%%",
"%%%%%%. +O++-:;;;;;;;;;;;;;;;;;;;;;;;;;;;;;;;;;<<<<O@+++++##%%%%",
"%%%%%%.     +>:::::::::::::::::::::::::::::::::<--<@     .&&%%%%",
"%%%%%%#oooooo1OOOOOOOOOOOOOOOOOOOOOOOOOOOOOOOOO++++oooooo#%%%%%%",
"%%%%%%&&&&&&#                                      #&&&&&&%%%%%%",
"%%%%%%%%%%%%$XXXXXXXXXXXXXXXXXXXXXXXXXXXXXXXXXXXXXX$%%%%%%%%%%%%",
"%%%%%%%%%%%%%&&&&&&&&&&&&&&&&&&&&&&&&&&&&&&&&&&&&&&%%%%%%%%%%%%%",
"%%%%%%%%%%%%%%%%%%%%%%%%%%%%%%%%%%%%%%%%%%%%%%%%%%%%%%%%%%%%%%%%",
"%%%%%%%%%%%%%%%%%%%%%%%%%%%%%%%%%%%%%%%%%%%%%%%%%%%%%%%%%%%%%%%%",
"%%%%%%%%%%%%%%%%%%%%%%%%%%%%%%%%%%%%%%%%%%%%%%%%%%%%%%%%%%%%%%%%",
"%%%%%%%%%%%%%%%%%%%%%%%%%%%%%%%%%%%%%%%%%%%%%%%%%%%%%%%%%%%%%%%%",
"%%%%%%%%%%%%%%%%%%%%%%%%%%%%%%%%%%%%%%%%%%%%%%%%%%%%%%%%%%%%%%%%",
"%%%%%%%%%%%%%%%%%%%%%%%%%%%%%%%%%%%%%%%%%%%%%%%%%%%%%%%%%%%%%%%%",
"%%%%%%%%%%%%%%%%%%%%%%%%%%%%%%%%%%%%%%%%%%%%%%%%%%%%%%%%%%%%%%%%",
"%%%%%%%%%%%%%%%%%%%%%%%%%%%%%%%%%%%%%%%%%%%%%%%%%%%%%%%%%%%%%%%%",
"%%%%%%%%%%%%%%%%%%%%%%%%%%%%%%%%%%%%%%%%%%%%%%%%%%%%%%%%%%%%%%%%",
"%%%%%%%%%%%%%%%%%%%%%%%%%%%%%%%%%%%%%%%%%%%%%%%%%%%%%%%%%%%%%%%%",
"%%%%%%%%%%%%%%%%%%%%%%%%%%%%%%%%%%%%%%%%%%%%%%%%%%%%%%%%%%%%%%%%",
"%%%%%%%%%%%%%%%%%%%%%%%%%%%%%%%%%%%%%%%%%%%%%%%%%%%%%%%%%%%%%%%%",
"%%%%%%%%%%%%%%%%%%%%%%%%%%%%%%%%%%%%%%%%%%%%%%%%%%%%%%%%%%%%%%%%",
"%%%%%%%%%%%%%%%%%%%%%%%%%%%%%%%%%%%%%%%%%%%%%%%%%%%%%%%%%%%%%%%%",
"%%%%%%%%%%%%%%%%%%%%%%%%%%%%%%%%%%%%%%%%%%%%%%%%%%%%%%%%%%%%%%%%",
"%%%%%%%%%%%%%%%%%%%%%%%%%%%%%%%%%%%%%%%%%%%%%%%%%%%%%%%%%%%%%%%%",
"%%%%%%%%%%%%%%%%%%%%%%%%%%%%%%%%%%%%%%%%%%%%%%%%%%%%%%%%%%%%%%%%",
"%%%%%%%%%%%%%%%%%%%%%%%%%%%%%%%%%%%%%%%%%%%%%%%%%%%%%%%%%%%%%%%%"
};
