/* XPM */
static char *e0dacea838654aa3ea964570a6ebdfc3PBzpoKUifefBk5Nl[] = {
/* columns rows colors chars-per-pixel */
"64 64 173 2 ",
"   c #13100B",
".  c #1D262B",
"X  c #24272C",
"o  c gray16",
"O  c #222732",
"+  c #252C34",
"@  c #272E38",
"#  c #2B2F39",
"$  c #2C3235",
"%  c #2D343C",
"&  c #2F383F",
"*  c #333436",
"=  c #323836",
"-  c #32353B",
";  c #353A3E",
":  c #3A3C3D",
">  c #403E3F",
",  c #3D403F",
"<  c #42423E",
"1  c #2F3741",
"2  c #2F3A41",
"3  c #333741",
"4  c #343C43",
"5  c #3A3E44",
"6  c #363F48",
"7  c #393F49",
"8  c #374046",
"9  c #3B4146",
"0  c #374149",
"q  c #3C444A",
"w  c #3F484D",
"e  c #3F4751",
"r  c #3E4A52",
"t  c #424545",
"y  c #484A47",
"u  c #41464B",
"i  c #434A4D",
"p  c #4A4C4C",
"a  c #524F4C",
"s  c #4D504D",
"d  c #51524E",
"f  c #444750",
"g  c #444C52",
"h  c #4A4E52",
"j  c #454F58",
"k  c #484F59",
"l  c #465155",
"z  c #4C5255",
"x  c #4D5957",
"c  c #475358",
"v  c #4C555A",
"b  c #4D595D",
"n  c #525454",
"m  c #555956",
"M  c #5A5956",
"N  c #53565A",
"B  c #535A5C",
"V  c #5B5D5B",
"C  c #5D615C",
"Z  c #62625D",
"A  c #68635D",
"S  c #4F5962",
"D  c #535D62",
"F  c #595F64",
"G  c #555F68",
"H  c #556164",
"J  c #5A6365",
"K  c #576568",
"L  c #5C666B",
"P  c #5D696C",
"I  c #5A6770",
"U  c #5F6D70",
"Y  c #646562",
"T  c #6B6661",
"R  c #676B65",
"E  c #6C6A65",
"W  c #626568",
"Q  c #636A6D",
"!  c #6B6E6B",
"~  c #736A61",
"^  c #736F68",
"/  c #6E706B",
"(  c #73726D",
")  c #7B786C",
"_  c #636D73",
"`  c #686F77",
"'  c #686F79",
"]  c #667275",
"[  c #6A7274",
"{  c #66737B",
"}  c #6A737C",
"|  c #6F787F",
" . c #767572",
".. c #787772",
"X. c #767972",
"o. c #7C7A75",
"O. c #777B7A",
"+. c #7B7E7D",
"@. c #827F75",
"#. c #807F7A",
"$. c #7F817E",
"%. c #848176",
"&. c #84827B",
"*. c #8A857C",
"=. c #8E8B7F",
"-. c #90897F",
";. c #717A81",
":. c #787F87",
">. c #7D868D",
",. c #868582",
"<. c #898681",
"1. c #8C8A83",
"2. c #8E8D89",
"3. c #938D83",
"4. c #928F8A",
"5. c #949186",
"6. c #999186",
"7. c #95928B",
"8. c #9A958C",
"9. c #9C998E",
"0. c #838A90",
"q. c #979691",
"w. c #9B9691",
"e. c #9D9B94",
"r. c #9F9E99",
"t. c #A0998F",
"y. c #A29D94",
"u. c #A29E99",
"i. c #9FA29B",
"p. c #A4A196",
"a. c #A8A197",
"s. c #A5A39A",
"d. c #AAA59C",
"f. c #ADA99E",
"g. c #B1A89E",
"h. c #A6A6A1",
"j. c #ABA6A1",
"k. c #AEABA2",
"l. c #ADAEA9",
"z. c #B1ADA4",
"x. c #B2AEA8",
"c. c #B4B1A6",
"v. c #B9B1A7",
"b. c #B5B2AA",
"n. c #B9B6AD",
"m. c #BAB6AC",
"M. c #BBB8AF",
"N. c #BCB8AD",
"B. c #BDBBAF",
"V. c #B6B5B1",
"C. c #BAB7B1",
"Z. c #BEBBB2",
"A. c #BEBCB0",
"S. c #BEBCB5",
"D. c #C0B7AE",
"F. c #C1BAAE",
"G. c #C0BCB1",
"H. c #C1BFB3",
"J. c #C2BDB4",
"K. c #C2BEB5",
"L. c #C3BEB8",
"P. c #C4C1B6",
"I. c #C8C1B6",
"U. c #C6C3BA",
"Y. c #C9C5BB",
"T. c #CBC7BD",
"R. c #CCC9BE",
"E. c #D0C9BF",
"W. c #CCC6C1",
"Q. c #CECBC1",
"!. c #D1CDC3",
"~. c #D4D0C6",
"^. c #D5D2C9",
/* pixels */
"V E V n n N R V V N n m ! N M ^ 7.S.m.m.b.A.A.A.M.z.M.x.m.k.Z.4.t 5 7 5 7 7 z ; ; 5 4 z i N Y ( a 2.7.7.7.b.s.A.T.T.j.j.t.u.f.u.",
"V J v z N N z [ N z N [ B z h p 3.K.U.M.Z.M.Z.M.H.M.c.w.Z.k.f.m.; w l g i 5 g k 4 9 q 4 S j b B #.i.l.j.l.S.Z.C.U.T.M.M.z.M.F.v.",
"d h v D B B D z D z J h N J p h d.U.<.m.H.H.M.A.M.P.m.H.k.M.8.y.: 5 0 v 5 q l 7 7 4 0 5 J i l q e.j.h.m.m.Z.S.Z.P.E.K.Z.M.z.z.v.",
"h B J N J J i v J [ i h z i t i z.H.H.M.A.A.M.s.H.P.A.A.c.y.p.m.; 4 3 g 7 3 % b 9 q 9 U l v % ; &.l.b.b.b.k.K.P.Y.R.M.P.M.m.z.K.",
"B x N L h z Q z b B i h z h t V z.m.M.M.M.d.M.K.H.P.H.m.p.9.d.x.p l v P g 5 4 D P w h L B J w + p.j.S.h.b.m.U.U.Y.T.P.U.P.F.H.v.",
"i l B N l z l B i B g u g g i h H.A.U.A.o.Z.z.P.P.B.M.M.y.f.m.C.m w q g q u h g D h c _ q w u u h.e.e.V.s.M.b.Y.M.H.P.P.U.v.B.f.",
"N h l L l z L l 0 0 J z g g q N H.c.A.z.P.H.U.R.P.I.K.p.m.8.m.H.z g g ] v h B _ 3 q c w h z i q e.r.h.k.b.K.U.U.H.M.c.R.m.z.M.z.",
"i L b l v z B l w g v D P i v N @.P.H.H.M.k.P.Q.Y.f.m.9.M.M.y.P.9 w L v v c q H w v B v w 0 Q u q.l.V.r.m.U.Z.K.Y.m.Z.Y.U.v.f.d.",
"i z l z D L B ] g g l B h g g V m.P.M.z.H.P.R.U.P.M.y.d.H.M.Z.U.$ q J g D q i z D g D ] P g 5 7 r.b.S.S.b.U.U.U.Y.H.Y.z.z.d.f.m.",
"z l 8 w H w w 0 q g w 0 g 0 L m M.Z.b.c.P.P.T.P.z.x.f.5.m.H.U.L.t l D g z b { ;.z L g L D 0 5 h 7.C.C.C.Z.K.U.P.Y.P.Y.U.m.z.v.8.",
"h g h b i 8 5 8 v 0 w 5 0 4 5 p f.z.M.P.M.U.m.U.c.9.z.f.M.P.Y.Y.p l v v v D 5 w i h z u D ] b i 7.S.V.C.K.m.S.H.K.R.U.P.K.Y.Y.x.",
"9 9 q l g 5 8 0 q 0 0 i 0 h q z 3.P.Q.m.P.A.K.A.p.m.b.P.P.H.R.k.n z B B [ q q 5 w 9 9 7 L g w D e.S.C.l.K.d.P.Y.z.P.P.P.B.I.6.x.",
"; 8 v z 9 4 8 q g h w 5 _ 0 q s o.P.T.U.m.U.H.z.M.P.P.H.M.b.T.L.p z v i v u q 0 w 0 z h P h 0 H r.V.j.S.P.s.U.U.b.H.t.a.f.a.m.z.",
"; D l P 9 4 9 4 g D b 4 5 g g 5 T m.K.M.R.c.x.M.m.H.U.R.P.Y.U.U.Z b >.;.l q 5 5 c w h q w L g h &.V.b.S.K.b.P.P.k.y.p.g.F.B.K.F.",
"p w b g 5 q 0 B v v q ; 4 ; 4 5 2.K.Y.T.k.P.M.c.M.H.M.Y.Q.Y.Y.U.n 8 9 Q u 0 3 g c _ q z H q b u 4.C.b.S.U.Z.K.9.m.z.a.T.I.H.I.B.",
": , : t t < d y y t 5 - t ; * < 2.y.y.1.9.6.m.x.b.m.U.Q.U.H.d.u.a t u z h i O.+.z J B h Q 9 9 E n o.<.e.a.b.8.5.3.6.x.x.y.3.3.3.",
"j.k.y.m.a.m.c.m.M.M.m.B.B.x.c.u.: h g u ; 4 _ [ u q 5 i N m $.o.k.K.C.m.8.S.K.K.y.u.y.A u.f.Z.b.p : : V m 9 u u 9 i l N W t M W ",
"H.B.M.z.B.m.k.c.K.Y.T.Y.H.c.m.x.i c { u 8 w l z q h h i l c l y y.f.p.s.f.k.y.z.z.c.H.Y.m.A.P.y.B g H b 7 4 3 4 u 9 u z z n B o.",
"f.m.y.c.c.8.M.p.9.H.K.Y.Z.p.f.k.z c L 8 q u H q v w q 0 v h h N b.m.m.f.b.c.P.M.A.P.A.H.M.K.Y.K.# $ b g % 3 5 % 0 q 9 i i h z ( ",
"m.m.y.M.P.Y.m.m.M.Y.H.9.m.H.K.m.: } 3 0 w 4 b g h u 9 q i i h m P.b.U.f.P.P.U.M.M.P.Y.K.T.K.P.H.# $ _ 3 4 5 % F 9 9 z 9 q p z z ",
"L.p.k.z.P.M.M.M.z.9.m.H.m.P.T.m.9 c g g % w w ] g 0 q q 9 9 h i R.Y.Y.Y.M.P.A.M.Y.H.Z.U.M.M.K.Y.- ; D g 0 3 3 h h g 9 7 q i h n ",
"b.8.z.x.U.H.Y.c.m.z.H.P.P.R.P.b.m 8 0 0 g H w ] w 0 9 w i u g u R.P.Y.P.A.M.A.A.f.A.P.H.m.m.H.m.3 4 _ L 3 % 5 g 0 7 7 5 9 u z h ",
"d.*.m.c.m.p.m.P.K.H.P.T.Q.Y.y.y.t v i i | 4 c D 9 w 4 u i i h N R.Y.K.H.M.H.c.A.A.Y.P.K.H.H.f.f.5 3 @ ; 0 v 4 0 9 ] q i i h $ n ",
"5.9.6.M.8.f.P.M.b.M.Y.T.P.a.k.m.y q g b b g _ b ] g 0 7 D g f m M.m.p.b.M.Y.H.U.P.K.C.U.c.b.Z.&.4 $ % B 3 % . h 5 q w v i h b t ",
"y.M.a.d.9.K.m.H.H.H.Y.x.M.P.T.m.p | L w b _ g w h 0 3 h c D v m b.Y.k.Z.B.P.b.P.m.U.U.P.M.B.P.P.- 3 4 7 L g 8 q h 7 h v h [ 9 p ",
"6.f.d.b.d.U.5.p.8.Z.K.9.R.R.Q.H.N } c g P i g q 0 4 w h u q g n b.m.Z.H.a.R.U.K.b.Z.c.Z.M.z.P.H.; 4 % % 3 G h 5 4 u u 7 9 u v 5 ",
"9.s.b.A.x.b.a.M.K.K.T.&.c.R.Q.T.J | b G P z w 0 q i z i h i u n b.K.M.P.c.U.U.Z.d.M.K.U.Z.k.9.f.t 5 % 3 3 P v ; u h 9 v q ; 9 : ",
"k.Z.m.K.z.c.P.b.K.Q.U.=.U.P.Z.b.i I b D z 5 w 0 q h v w 5 u i z C.Y.H.P.M.9.1.b.m.m.b.k.y.c.9.T.; % % % % 5 w 9 3 D 5 7 4 9 5 N ",
"y.Y.f.k.H.P.Z.A.x.b.U.y.K.k.j.b.; r l g 0 c q z 9 u 9 5 q q h z Z.H.m.Y.P.f.E 1.*.b.Z.K.k.d.f.m.- % $ % % 3 P u - q 7 5 9 B u 5 ",
"1.P.P.P.K.U.c.a.K.U.A.%.M.e.Z.m.7 w D D g b Q h w g 9 5 9 9 h y k.a.6.*.9.d.1.b.k.m.Z.Z.M.f.m.y.9 5 % 4 % & D 0 3 q g L u J u p ",
"<.T.Y.m.m.c.U.Z.Z.b.K.f.M.S.c.K.9 0 H l g v D w w z w 4 5 5 q t x.f.3.e.b.z.x.I.x.b.d.K.b.y.b.m.t 4 % @ $ 1 H w b q g 9 v u z y ",
"2.W.m.a.8.d.f.v.b.c.m.&.k.u.E x.: : F p = i B 5 5 u : 5 9 % ; y ^ s.b.9.k.x.7.&.4.u.8.z.d.c.a.d.9 ; 7 - % - L F B p 5 p y t u y ",
"M y V N Q N i i B z p t y i h Y y.y.L.z.b.m.z.j.5.p.m.k.s.d.w.u.m * u ; y ; # - ; - 5 5 7 - 7 i Z.a.H.B.H.M.c.T.S.C.U.Y.C.x.y.,.",
"5 g b r b l u 9 i q 0 B u v g ( Z.P.k.p.d.m.z.w.f.f.b.M.k.k.f.y.; % 4 1 2 3 + 5 ; ; 0 7 3 3 0 - u.A.P.A.M.R.T.T.K.m.m.T.S.b.d.s.",
"5 g v i c w g 8 5 g w B b B v o.K.m.k.8.3.p.f.b.M.m.m.f.s.e.M.x.; N & % 3 7 3 0 5 3 q 4 3 5 0 h 9.P.R.P.R.Q.U.P.H.Z.U.P.A.Z.k.m.",
"; 5 5 q w w 5 0 0 g P l g i i Z M.d.c.A.b.M.z.c.x.x.C.m.d.x.z.b.5 l 3 3 5 4 3 5 0 5 0 w 4 0 g 8 d.U.Y.T.Q.T.m.H.M.c.c.K.Z.K.6.e.",
"5 8 0 q g i q g q H l u 9 u q p f.p.U.K.c.y.d.p.x.b.k.k.k.z.x.b.u P 3 0 0 4 5 w 0 3 5 0 w w l i 9.m.U.Q.!.P.R.K.U.b.b.m.Z.d.y.y.",
"3 8 9 9 w w 9 h D 9 u 9 u u 7 y Q.U.M.m.f.c.b.m.b.c.Z.b.b.m.x.z.9 P 4 8 q 5 8 0 0 8 5 4 8 h B y w.U.T.!.R.P.K.R.m.U.c.Z.M.f.d.p.",
"4 4 ; 3 4 g w w w 7 q u 9 u i h U.U.m.k.x.d.K.Z.b.M.Z.m.k.x.a.z.; ] q 5 0 8 w 0 0 0 w 0 0 w u 9 6.H.Q.Y.c.H.m.Q.R.M.k.a.m.x.b.d.",
"5 4 h 4 4 q w w i i i g i i z z Q.K.T.b.x.k.m.Z.m.m.Z.b.b.m.k.a.9 l q 4 8 0 0 5 7 7 8 + 4 q 4 g k.Y.H.z.K.P.K.P.P.b.x.k.b.k.8.p.",
"- q q w 9 q 0 P b B l z g l s z U.4.k.K.m.U.K.Z.b.b.Z.m.b.b.k.x.5 8 w u 8 8 0 w w w u 4 g g g i z.Y.m.Y.P.P.m.A.U.b.a.d.c.f.a.q.",
"- 9 9 w l 9 w U J h l 9 z h y h Z.x.b.b.m.Z.K.k.x.x.m.k.b.k.c.z.9 i q u u i u i 0 i i q w g v u M.U.Y.H.P.Y.k.R.A.x.y.k.p.f.f.k.",
"- w v q 9 0 z q P i q i u i h p b.2.w.c.m.m.k.x.x.m.K.x.Z.m.M.H.t g B u g 4 z z h i i q 9 h N L H.M.z.c.M.A.c.P.k.k.f.p.s.k.k.k.",
"9 g w w 5 4 q w l q u 9 i p t t k.V.x.x.A.A.K.m.Z.m.m.c.k.b.m.K.t 0 J h u g z i h q i g J J p z k.K.b.b.Y.Z.U.z.k.9.y.k.k.x.Z.&.",
"9 g 9 5 3 l K g h i i u z N t h 6.a.1.b.x.Z.U.K.m.Z.m.x.m.P.P.K.t h H D g z z N i u q F B i i g a.M.K.U.A.m.K.c.9.p.x.k.a.k.9.E ",
"9 q u q 4 l B v u u i i ; y t t y.9.x.b.k.c.m.P.m.c.M.b.Z.A.U.U.C h Q h i N i h u ] i h h u h m 9.  R.U.K.M.K.m.f.b.Z.d.d.y.) 2.",
": w i 5 0 h q 9 q h 9 p z u t Y p.*.b.C.a.b.c.k.Z.b.U.k.Z.H.H.K.n ] l h l i D z v h z h N z v M m.T.Q.P.M.M.m.H.U.K.k.b.a.*.p.w.",
"t i z i i p i u h t i n z y < M p.k.Z.b.x.S.P.7.U.S.U.A.K.p.K.U.C V J z m J ! N z [ z N M V M a s.m.U.p.L.U.K.c.P.M.h.p.x.K.b.o.",
"7.z.d.z.g.M.c.m.y.y.9.y.9.w.&.#.Y y E E ! o.&.M p z +.V X.Z %.w.9.U.K.m.x.k.m.m.P.Y.M.Q.m.W.K.c.a V Y p V t 9 9 y 9 p : t N z > ",
"b.m.v.t.D.Y.M.y.*.3.d.f.B.f.%.3.t q 9 5 i h z y N i [ z V / O.( I.I.M.P.P.M.H.m.Y.H.U.M.R.c.T.Y.M q q v b u 7 q q h u u q g R d ",
"k.H.m.H.m.c.m.c.f.z.m.c.m.m.f.) 9 q u i h z h u 5 z h z h M M E P.T.y.m.f.m.H.f.H.P.m.m.P.Q.Y.x.n 5 7 b h q 9 9 7 9 9 i X 9 u Q ",
"a.z.z.m.M.R.Z.M.m.x.m.b.M.x.z.z.Q i 9 9 i q u 9 W u h h J N z T U.R.H.f.y.P.Y.z.m.K.x.j.R.Q.Y.y.N q z l 5 5 5 5 7 9 g q ` :._ y ",
"3.u.y.M.m.z.P.Y.P.P.Z.K.M.d.z.c.i u 7 - u i q i h i q h i m N ( P.P.c.M.P.U.c.R.f.m.d.b.!.H.T.M.p 6 g 0 5 5 4 5 w q f 0.D 5 q Y ",
"r.x.x.m.m.x.z.K.H.U.U.Z.c.b.c.m.y z g q 7 9 G w u g 0 q h h B Z P.M.6.h.Y.Y.c.Y.f.R.A.Z.R.R.!.P.z q c D 3 5 0 g q ' F 9 7 7 q Y ",
"r.f.x.k.p.y.y.M.Z.Z.Z.x.U.d.m.P.5 L D h v g h 4 q 9 i q i u J Z y.s.y.z.I.8.p.k.M.Y.R.P.Y.!.~.!.l v v 0 4 4 q 4 >.w 5 3 7 0 u p ",
"p.3.9.8.y.d.d.d.x.c.b.M.m.d.j.m.: } g 9 G _ g 5 7 q q 9 g h D n H.Y.M.M.H.M.U.S.p.d.R.!.!.H.!.T.N g h 8 w $ D } 0 4 0 5 7 0 w J ",
"9.5.1.w.y.w.k.x.d.K.A.A.P.C.b.m.z { c 5 g b L 5 4 v D 0 w l B y ~ R.P.P.M.m.c.@.P.b.K.R.Y.!.T.T.z i 5 q H L D w 5 0 5 8 7 0 l m ",
"x.e.9.6.f.y.6.d.a.U.A.P.P.Z.k.e.N 4 u 4 L q 9 @ 4 w 8 l g q D i 9.K.m.f.M.H.6.Y.Y.S.C.P.!.~.!.!.i 9 w q u 7 3 % 8 4 5 0 w w q F ",
"h.r.6.5.3.y.y.a.b.M.Z.m.k.b.x.2.t 2 + 3 } i w H 0 b i q 5 5 c 5 *.3.R.m.U.f.m.Y.~.Q.Y.k.U.f.T.R.u b l q q g 3 q 5 4 w g w q q h ",
"s.<.2.7.b.y.p.y.m.Z.T.K.b.a.9.7.s b g g g 0 8 b g b % 4 8 g l 9 -.T.H.c.x.c.Y.Y.Q.b.P.m.H.Y.T.!.u G 5 g 0 5 4 4 1 1 3 & 3 3 0 y ",
"7.s.<.! r.y.r.d.s.m.b.Z.h.a.s.e.: @ O % % 8 g w 0 % % w 5 0 0 u 3.f.p.*.p.c.p.c.Q.U.!.P.Z.T.Q.C.- 5 ;.5 0 w 0 4 % % % 1 q w r 9 ",
"1.&.7.2.r.d.w.s.s.u.p.j.e.j.m.7.* @ + O % % @ O @ @ - @ 0 8 6 ; 6.c.z.M.U.T.f.p.T.^.!.K.T.b.Q.u.+ 2 5 5 0 0 5 % 3 3 6 3 4 w r 9 ",
"E <.4.+.4.r.q.e.7.7.7.w.q.r.w.&.: O O $ g $ @ 5 3 3 $ w 3 G v i u.5.H.M.Y.R.M.=.z.9.w.Q.U.Q.U.f.; v w e 5 w 8 5 8 j 3 0 K q 4 V ",
"o Z o.2.o.2.q.M E ,.4.2. .j.7. .: * : p y $ - ; * $ - < : 7 7 p M S.d.Y.Q.T.K.U.!.W.U.j.<.W.S.( < , 8 q u q 9 9 - - : : * - y .."
};
