/* XPM */
static const char *xpm__[] = {
/* columns rows colours chars-per-pixel */
"64 64 5 1 ",
"  c #005C19",
". c #006C16",
"X c #008212",
"o c #008512",
"O c #008C10",
/* pixels */
"X. Xo  ... ......... .. .O. ... ........o..X  oX  ... .......X. ",
"X. ... .. . ...  ... ... .X... .  ..   ....X. .X. .... ...  ... ",
"..  .. ...X. . .........  .. . .. ...X.......  .. ...X. . ......",
". .       .. ..X.  ... ..  .   ........  ... .      ... ..X.  ..",
"  ... ..  ... ..... .  ... ..   .. ..... .. ...  ..  ... ..... .",
". .X.....X  ... ...  .. .. ...o. .... ..  .. .......X  ... ...  ",
"o. .... .X.     ...  .. ..... .X.     ..  .X. .... .X.     ...  ",
"..  ... .... ... .. ...   ..  ...  ...... ...  ... .... ... .. .",
".. ..   ....X... ... ....X   ... .X... .. ... ..   ....o... ... ",
"....X.   .. .. .. .. ....X.   .. ..... .. .....X.  ...... .. .. ",
".....X. ...  ..o. ..  ....X.  ... .......  .....X. ...  ..X. .. ",
" .. ... .........  ..  .. ..  ..X.....   .  .. ... .........  ..",
".  . .. ....... .. ...  . .. ....o.. .. ...   . .. ...X.X. .. ..",
"....    .. .... .. ... .X.   ... ... ........X.    .. ... ... ..",
"....... .  ...  .O. .. .....  . ....  oX .. ...... .  ...  .O...",
"   ....   X...  ... .   .....  .. .. ...  .   ....   X. .  ... .",
" .. ...  .. ........  .. .... ..  . ....    ......  .. ...... . ",
" ..  .... ..  .. ........ .X... ..  ...X... ..  X... ..  .. ....",
"........X... .....X.X.... ...X..X. ........... ........ .....X.X",
" ..... ..... .... . ........ .... .X.. .. ....... ..... ... .. .",
"   .. .X.  ... .X.       .  ..   ....X. .     .. .X.  ... ..    ",
".  ..  .X. .oX...... .. ..  .X. .oo..X. .  .  .. ..X. .oX...... ",
"o. .o. ..  ......... .. .X. ...  ..... .X..o. .o. ... ......... ",
"..  .. ..... . ......... ..... .. .. ........  .. .... .. ......",
"...  .   ... ..X. ....... .  . .X....X. ......  .   ... ..X. ...",
"  ..  .   ... ....  .. ..   .  ........  .. ...  .   ... ....  .",
"  .X. .... ........  . ... .......... .X.    .X.............X.  ",
"X. .... .o.   . ...  .. ..... ..      ..  .X...... .o.   . ...  ",
"..  .X. ..X.  .. ..  ..  .X.. .X.   . ..  ...  .X. ..X.  .  ..  ",
".. ...  ........ ..  ......   ......X.... ... ...  ......X. ..  ",
".....   ...... .. .. ....o.   .. .o. . .. ......   ....X. .  .. ",
"....... ... ...o. ..  ....X.  .......X ..  ......  ... ...O. .. ",
" ....X. ....  ...  .. ... ..  ...  ...  ..  .. .X. .... .... ...",
"    ... ...X.X. .. ...    .. ....o.X...  ..    ... ...o.o. .  ..",
". .. .  .. .... .. ... ...   ....... .X..... .. . ... ... ... ..",
"....... .   ... .o.... ..... ..  ... .X. ...... .. .  ...  .o...",
"   ....   .. .  .X. ..  .....  .. ..  .. ..  .....   .. .  .X. .",
" ......  .. ..  ...   .. ....  .. ..  ..    ......  .. ..  ...  ",
" .. ..... ..  .. .... .....X... ..  ......  ........ ..  .. ....",
"........o...  ....o.O.... ...o..o.  ...X.o.... ....X.X.  ....o.O",
"...... ..... ......................... .......... ..... ........",
" .. .....   ..... ..   . .. ....  .. ....   . ......   ..... .  ",
"   .  .X.  .OX..o.       .  .o. .oO..o. .     .  .o.  .O...X.   ",
"o. .o. ... ......... .. .O. ... ........X .X  XX. ... .......X. ",
".. ... .. . ...  ....... .X... .. .. . ...... ... . .. ...  ....",
"..  .. ...X. . .........  .. . .X ...o.......  .. . .X. . ......",
". ..      .....X..  .. ..      ........  ... .       .. ..X.   .",
"  ... ....... ..... .  ... ............. .. .... ............. .",
".........o.   . ...  .. ......X.   .. ...  . .......o   .. ...  ",
".. .... ...      ..  .. ..... .X.     ... ... .... ...      ..  ",
"..  ..  ......X. .. ...   ..  ......X. .. ...  ..  ......X. .. .",
".. X.   ....X...  .. ....o   ... .o. . .. ... X.   ....o... ..  ",
"....X.  ......... .. .......  ........ ..  ....X.  ... ...X. .. ",
".....X. ....  ... ... ... ..  ...  ... ... .....X. .... .... ...",
" .. ... ...X.....  ..  .  ............   .. .. ... .........  ..",
"  .. .. ....... X. ...  .... ....X.. .. .... .. .......... X. ..",
"..X. .  ..  ... ...... .X.   ..  ... ........X. .  .. ...  .....",
"  .....   ..... .O. .. .....    . ..  X. ..  .....   ....  .O. .",
" . ....  .X...  ... .  . ....  .. ..  ..  . . ....  .X...  ...  ",
" .. .... .  ........  .. .... .. .. .....   ......  .  . ...... ",
"...  .... ..  ......X.... ...X..X.  ...X.X.... ..... ..  ......o",
"............ ............ ........ .................... .....X..",
" ..........  .... .  ............ .... .. . ..........  ......  ",
"      .o.  ... .X.       .  XX  .....O.          .o.  ... .X    "
};
