/* XPM */
static const char *xpm__[] = {
/* columns rows colours chars-per-pixel */
"64 64 20 1 ",
"  c #183C3D",
". c #24222C",
"X c #234F3C",
"o c #265A43",
"O c #316E47",
"+ c #284D5E",
"@ c #474B4C",
"# c #3D8847",
"$ c #35916A",
"% c #459249",
"& c #40853B",
"* c #105E97",
"= c #49709A",
"- c #0095E9",
"; c #10A5E1",
": c #2AE8F4",
"> c #23D2E8",
", c #43B4B4",
"< c #B4CBD5",
"1 c #DEC55B",
/* pixels */
"*******-----------------------;>>;>:::::::::::::::::::::::::::::",
"*******------------------------;>>:::::::::::::::::::::::<11::::",
"********----------------------->;::::::::<<<<<::::::::::<1111:::",
"********-----------------------;>>::::<:<<<<<<<:::::::::111111::",
"*********----------------------;;>:::<<<<<<<<<<<:::::::,111111::",
"*********---------------------;>;>::<<<<<<<<<<<<<:::::::111111::",
"*******$*----------------------;>>>,<<<<<<<<<<<<<<::::::<1111:::",
"******+O$*--------------------;>>::,=<<<<<<<<<<<<<<::::::,1<::::",
"*****+oo%**-------------------->>>::,=,<<<<<<<<<<<<:::::::::<<::",
"****+oOOO$**---;---------------;>>>::::::::::::::::::::::<<<<<<<",
"***+ooooOO$*-;;<<>------;<----;;>>;:::::::::::::::::::::<<<<<<<<",
"**+ooo@@oO#**,<<<<<----;<<<----->>>>:::::::::::::::::::::,<<<<<<",
"*+ooXo@@OOo%**,,<<;---;<<<<<-----;>>:>:::::::::::::::::::::>>>>>",
"+  oooX@@OO%%**------;<<<<<<,---;;;>>:::::::::::::::::::::::::::",
"    oooooOOo#%$*----,<<<==<<<,;;--->>:>:::::::::::::::::::::::::",
"+++++XooooOO+++*---;===<<=<<<==<,--;>;>:::::::::::::::::::::::::",
"****+o@@#Oo#O****-=======@======<,--;;>>::::::::::::::::::::::::",
"***+oX@@@OOoOO***====+@@@++======<,--;;>>:::::::::::::::::::::::",
"*++XXXoX@OOOO#%*====+++++++@@@====<;;,,>>>>>>:::,::>>:::::::::::",
"+X  oXXooOOoOoO$ @=+++++++++@@@===<;-=;->>:,,::>,::>,::::>:>,::>",
"     ooooOoooooO  ++++++++++@@@====,$$*$,,,,$>:,>:::,>::>,:,,:,,",
"+++++X@o@#%O#Oo...o+++++++++@@@O+=#%&#&&&&&O&#$#$$$$#$>>,>::,:>,",
"**O+oo@@oo#%##OOo. O++++@@++++@###############&#&&####&$$$,$$$,$",
"###ooX@@oOO#%%#%#&oO+++@@+++OOO%#######################&&&&&#&&#",
"#O  ooooooOOO%%##%%###OO#OO%####################################",
"o       XoooOo%%################################################",
"OOOOOO.@@&&##O#%##################%#############################",
"####%O@@@%%%%##########&O########OO#############################",
"##OOOo@@@%############%OO%#######&O#############################",
"#OOoOo@@@%####################OO#%%#############################",
"#OOooX.@@@#############%%#####O&#%%#############################",
"#OOoX...@@%############%%#####%%#%%#############################",
"OOoOooooO##############%%####%%###%%############################",
"oOOOOOO################%%####%%###%%############################",
"ooO###O############O@%#%%##%#%%##%%%######&&####################",
"oooO%#O###########&&O$$$%%;**,$*;$;;;;;-;$$$$$#&&##########OO%##",
"ooooOO#%O######%##*$%---+$;**-=*;;----;>>,,,;-***$#########O####",
"oooooo#%#O###%#O+**$**--*;-**-,,-;;;:>:::<<<::>;--;$#&####%OO#Oo",
"ooooooOO#OO##O+***+,***-,;-,;-,,-;>;>:::::,<<,<,----;$#%##Oooooo",
"oooooooooooOO******$***-$;-,;--,;----::::::::<<::;--*-$OOooooooo",
"ooooooooooooo+*****$***-$;-,;--,;----;;:::::>;;;;---*;oooooooooo",
"ooooooooooooooo+***$***-$,-;,--,,-------------*----*oXXooooooooo",
"ooooooooooooooooo++$$*-*-,;-,*-;,--**---------**-*+ X+oXoooooooo",
" oooooooooooooooooooo**+**--,;*;,--*-----*****oooX   +=+ Xoooooo",
"  ooXoooooooooooooooooXoXXo+O+o+O++o+++++oXXooooo     +=++oooooo",
"   oXooooXooooooooooooooooooooooooooooooooooooooX      o+==+oooo",
"    oooooXoooooooooooooooooooooooooooooooooooooX         +==oooo",
"     oXoooooooooooooooooooooooooooooooooooooooX           +++Xoo",
"        oooooooooooooooooooooooooooooooooooooo               ooo",
"          Xooooooooooooooooooooooooooooooooooo.              ooo",
"             oooooooXoooXooooooooooooooooooooo..             ooo",
"                           ooooXoooXoooooooXoo ..            ooo",
"                              XXooooXooooooXooo...          XoXo",
"                                  ooXXoooooX  Xo.......    XooXo",
"                                                            X XX",
"                                                                ",
"                                                                ",
"                                                                ",
"                                                                ",
"                                                                ",
"                                                                ",
"                                                                ",
"                                                                ",
"                                                                "
};
