/* XPM */
static char *_7ba9bab03204aab94bb20c058c76348dYZ1BEzbxCNQs3Mk[] = {
/* columns rows colors chars-per-pixel */
"64 64 204 2 ",
"   c #010101",
".  c #050B0F",
"X  c #1F0A0B",
"o  c #230D0E",
"O  c #29110A",
"+  c #35150C",
"@  c #37190F",
"#  c #38190F",
"$  c #240E10",
"%  c #261011",
"&  c #2B1412",
"*  c #2F1814",
"=  c #3A1B11",
"-  c #371F18",
";  c #3B231A",
":  c #3E2A1A",
">  c #15212A",
",  c #1B2A37",
"<  c #3F2820",
"1  c #313131",
"2  c #4F1417",
"3  c #591417",
"4  c #671B17",
"5  c #691B17",
"6  c #47280F",
"7  c #422516",
"8  c #43261B",
"9  c #412A1E",
"0  c #492B1C",
"q  c #50331D",
"w  c #593B1D",
"e  c #6C231A",
"r  c #462D21",
"t  c #4C3323",
"y  c #563A24",
"u  c #543927",
"i  c #5A3D29",
"p  c #6D2620",
"a  c #5F4528",
"s  c #694E27",
"d  c #63462A",
"f  c #6A4D30",
"g  c #6C4C38",
"h  c #6C5333",
"j  c #715534",
"k  c #76593A",
"l  c #7E6338",
"z  c #243543",
"x  c #2F4D68",
"c  c #324D64",
"v  c #7F6440",
"b  c #42607A",
"n  c gray44",
"m  c #9B2227",
"M  c #9B2329",
"N  c #A32227",
"B  c #AA2227",
"V  c #B92128",
"C  c #EF1D1D",
"Z  c #C51E25",
"A  c #D21D28",
"S  c #CF2127",
"D  c #C12228",
"F  c #CE2128",
"G  c #D22A27",
"H  c #D02128",
"J  c #D52A2A",
"K  c #D93327",
"L  c #DA332A",
"P  c #DD3B2B",
"I  c #ED2223",
"U  c #EC2C27",
"Y  c #E3382C",
"T  c #ED3132",
"R  c #ED3838",
"E  c #AA5E3C",
"W  c #856433",
"Q  c #82653C",
"!  c #8A6C3D",
"~  c #E3452C",
"^  c #E24732",
"/  c #AD4A4E",
"(  c #A75940",
")  c #896E45",
"_  c #957641",
"`  c #977946",
"'  c #9B7B45",
"]  c #9A7D4E",
"[  c #836F50",
"{  c #9A7E50",
"}  c #8F7C69",
"|  c #B96166",
" . c #C84048",
".. c #EC4645",
"X. c #F04244",
"o. c #E35B50",
"O. c #CE7F4C",
"+. c #D07F4C",
"@. c #E5614A",
"#. c #E76753",
"$. c #C07D7D",
"%. c #F26364",
"&. c #E97B6A",
"*. c #E6767B",
"=. c #F47374",
"-. c #9A804E",
";. c #9C8252",
":. c #A38548",
">. c #B3914E",
",. c #BD984F",
"<. c #AC8C53",
"1. c #B39352",
"2. c #B89A56",
"3. c #BDA259",
"4. c #988566",
"5. c #B49C62",
"6. c #BEA36A",
"7. c #CF804C",
"8. c #D0804D",
"9. c #C49F57",
"0. c #C4A156",
"q. c #C4A158",
"w. c #C9A65B",
"e. c #CDAA5C",
"r. c #D0AA5D",
"t. c #CEAD61",
"y. c #C7A968",
"u. c #C4AB6C",
"i. c #D1AE62",
"p. c #D2AE69",
"a. c #CAB16D",
"s. c #D2B366",
"d. c #D4B56A",
"f. c #D8B96C",
"g. c #CDB471",
"h. c #D3BA77",
"j. c #DEC377",
"k. c #DDC47A",
"l. c #E3C277",
"z. c #E2C77C",
"x. c #E2C97D",
"c. c #E6D37F",
"v. c #517D9E",
"b. c #57809F",
"n. c #5B87AB",
"m. c #6D9ABE",
"M. c #649ECC",
"N. c #68A2D0",
"B. c #6BACDE",
"V. c #79AEDA",
"C. c #6CAEE2",
"Z. c #6DB0E5",
"A. c #75B3E3",
"S. c #9D9D9D",
"D. c #AD9D8B",
"F. c #CA9190",
"G. c #D29C9F",
"H. c #EE8682",
"J. c #F68F95",
"K. c #C4B993",
"L. c #D29DA2",
"P. c #D5A3A6",
"I. c #F4A9A4",
"U. c #DDC482",
"Y. c #D6CA8E",
"T. c #C5C39B",
"R. c #C9C69A",
"E. c #D7CC95",
"W. c #E6CF83",
"Q. c #E8CF85",
"!. c #E6D183",
"~. c #E8D086",
"^. c #E6D18B",
"/. c #E9D28A",
"(. c #EBD88E",
"). c #E3CD9F",
"_. c #EAD594",
"`. c #EBD999",
"'. c #C0C4A1",
"]. c #CBCBA4",
"[. c #E9DAA5",
"{. c #EDDDA9",
"}. c #8BBADA",
"|. c #85BAE6",
" X c #9EC3DD",
".X c #96C5EA",
"XX c #ACD1EC",
"oX c #BEDBF1",
"OX c #F7C8C6",
"+X c #FBD1CE",
"@X c #F9DDDD",
"#X c #F1E8CC",
"$X c #F1E6D9",
"%X c #F5EEDD",
"&X c #F7F0D7",
"*X c #F5F1DB",
"=X c #EEEEE7",
"-X c #F9EBEA",
";X c #F6F1E4",
":X c #FBF7EC",
">X c #FCF3F2",
",X c #F9F7F3",
"<X c #F6FAFD",
"1X c #FEFEFE",
/* pixels */
"m m m m m m m m m m m m m m m m m m m m m m m m m m m m m m m m ~ ~ ~ ~ ~ ~ ~ ~ ~ ~ ~ ~ ~ ~ ~ ~ ~ ~ ~ ~ ~ ~ ~ ~ ~ ~ ~ ~ ~ ~ ~ ~ ",
"m m m m m m m m m m m m m m m m m m m m m m m m m m m m m F.G.L.I.I.^ ~ ~ ~ ~ ~ ~ ~ ~ ~ ~ ~ ~ ~ ~ ~ ~ ~ ~ ~ ~ ~ ~ ~ ~ ~ ~ ~ ~ ~ ",
"m m m m m m m m m m m m m m m m m m m m m m m m m m m | -X1X1X1X1X1X>X>X&.~ ~ ~ ~ ~ ~ ~ ~ ~ ~ ~ ~ ~ ~ ~ ~ ~ ~ ~ ~ ~ ~ ~ ~ ~ ~ ~ ",
"m m m m m m m m m m m m m m m m m m m m m m m m m / $X1X1X1X1X1X1X1X1X1X1X&.~ ~ ~ ~ ~ ~ ~ ~ ~ ~ ~ ~ ~ ~ ~ ~ ~ ~ ~ ~ ~ ~ ~ ~ ~ ~ ",
"m m m m m m m m m m m m m m m m m m m m m m m m m G.1X1X1X*.I.1X1X1X=.J.1X1XH.~ ~ ~ ~ ~ ~ ~ ~ ~ ~ ~ ~ ~ ~ ~ ~ ~ ~ ~ ~ ~ ~ ~ ~ ~ ",
"m m m m m m m m m m m m m m m m m m m m m m m m / 1X1X1X>XI I OX-X=.I %.,X1X;X@.~ ~ ~ ~ ~ ~ ~ ~ ~ ~ ~ ~ ~ ~ ~ ~ ~ ~ ~ ~ ~ ~ ~ ~ ",
"m m m m m m m m m m m m m m m m m m m m m m m m $.1X1X1X%.I ..I T R C I H.1X1X#.~ ~ ~ ~ ~ ~ ~ ~ ~ ~ ~ ~ ~ ~ ~ ~ ~ ~ ~ ~ ~ ~ ~ ~ ",
"m m m m m m m m m m m m m m m m m m m m m m m m >X1X1XOXT T -XX.X.@X+XI U 1X1X#.~ ~ ~ ~ ~ ~ ~ ~ ~ ~ ~ ~ ~ ~ ~ ~ ~ ~ ~ ~ ~ ~ ~ ~ ",
"m m m m m m m m m m m m m m m m m m m m m m m m F.1X1XU I 1X1X1X,X1X1XR I Y 1X#.~ ~ ~ ~ ~ ~ ~ ~ ~ ~ ~ ~ ~ ~ ~ ~ ~ ~ ~ ~ ~ ~ ~ ~ ",
"m m m m m m m m m m m m m m m m m m m m m m m m / 1XH.I ..1X1X1X1X1X1XI.I I.@X@.~ ~ ~ ~ ~ ~ ~ ~ ~ ~ ~ ~ ~ ~ ~ ~ ~ ~ ~ ~ ~ ~ ~ ~ ",
"m m m m m m m m m m m m m m m m m m m m m m m m M P.>Xo.A J J J A  .@X-X@X1XI.~ ~ ~ ~ ~ ~ ~ ~ ~ ~ ~ ~ ~ ~ ~ ~ ~ ~ ~ ~ ~ ~ ~ ~ ~ ",
"m m m m m m m m m m m m m m m m m m B B B Z A H S H H H H H H H H H H H H H F H G P P P ~ ~ ~ ~ ~ ~ ~ ~ ~ ~ ~ ~ ~ ~ ~ ~ ~ ~ ~ ~ ",
"m m m m m m m m m m m m m m m V V D S H H H H H H H H H H H H H H H H H H H H H H H H S J J K ~ ~ ~ ~ ~ ~ ~ ~ ~ ~ ~ ~ ~ ~ ~ ~ ~ ",
"m m m m m m m m m m m m m H H H H H H H H H H H H H H H H H H H H H H H H H H H H H H H H H H H H K ~ ~ ~ ~ ~ ~ ~ ~ ~ ~ ~ ~ ~ ~ ",
"m m m m m m m m m B V Z H H H H H H H H H H H H H H H H H H H H H H H H H H H H H H H H H H H H H H H G L ~ ~ ~ ~ ~ ~ ~ ~ ~ ~ ~ ",
"m m m m m m m m Z F H H H H H H H H H H H H H H H H H H H H H H H H H H H H H H H H H H H H H H H H H H H G G Y ~ ~ ~ ~ ~ ~ ~ ~ ",
"m m m m m N V H H H H H H H H H H H H H H H H H H H H H H H H H H H H H H H H H H H H H H H H H H H H H H H H H G P ~ ~ ~ ~ ~ ~ ",
"m m m N V H H H H H H H H H H H H H H H H H H H H H H H H H H H H H H H H H H H H H H H H H H H H H H H H H H H H H K P ~ ~ ~ ~ ",
"m m m S H H H H H H H H H H H H H H H H H H H H H H H H H H H H H H H H H H H H H H H H H H H H H H H H H H H H H H H H H ~ ~ ~ ",
"N D H H H H H H H H H H H H H H H H H H H H H H H H H H H H H H H H H H H H H H H H H H H H H H H H H H H H H H H H H H H F J ~ ",
"2 3 3 7.7.O.O.O.7.O.O.O.O.O.O.p 3 3 3 3 E O.O.O.O.O.O.O.O.7.7.O.O.O.O.O.O.O.O.7.+.O.( 4 5 5 5 5 +.O.O.O.O.O.O.O.O.O.8.O.8.5 5 e ",
"$ $ $ e.e.e.e.e.e.e.e.e.e.e.Q $ $ $ $ $ $ 9.e.e.e.e.e.e.e.e.e.e.e.e.e.e.e.e.e.e.e.W # @ @ @ @ @ e.e.e.e.e.r.e.r.e.r.e.e.e.@ @ @ ",
"$ $ $ e.e.e.e.e.e.e.e.e.e.w.i $ $ $ $ $ $ & :.e.e.e.e.s.W.W.W.W.W.W.W.W.W.W.W.W.k.d @ @ @ @ @ @ 0 u.W.W.W.W.W.W.W.W.W.W.Q.@ @ @ ",
"$ $ $ e.e.e.e.e.e.e.e.e.e.0.$ $ $ $ $ $ $ $ * >.e.e.e.x.W.W.W.W.W.W.W.W.W.W.W.W.q @ @ @ @ @ @ @ @ ] W.W.W.W.W.W.W.W.W.W.Q.@ @ @ ",
"$ $ $ e.e.e.e.e.e.e.e.e.e.o $ $ & r - o $ $ $ _ e.e.e.!.W.W.W.W.W.W.W.W.W.W.W.f @ @ @ @ 0 i 0 @ @ = k.W.W.W.W.W.W.W.W.W.Q.@ @ @ ",
"$ $ $ e.e.e.e.e.e.e.e.e.! % a Q _ i.>.Q Q o $ o t.e.e.!.W.W.W.W.W.W.W.W.W.W.6.8 @ f ] { u./.6.{ ) = k.W.W.W.W.W.W.W.W.W.Q.@ @ @ ",
"$ $ $ e.e.e.e.e.e.e.e.e.i 3.w.e.e.e.e.e.e.9.! & t e.e.!.W.W.W.W.W.W.W.W.W.W.;.@ x.x.W.W.W.W.W.W.W.U.0 W.W.W.W.W.W.W.W.W.Q.@ @ @ ",
"$ $ $ e.e.e.e.e.e.e.e.e.e.e.e.e.e.e.e.e.e.e.e.e.h t.e.!.W.W.W.W.W.W.W.W.W.k.f g.W.W.W.W.W.W.W.W.W.W.~.W.W.W.W.W.W.W.W.W.Q.@ @ @ ",
"$ $ $ e.e.e.e.e.e.e.e.e.e.e.e.e.e.e.e.e.e.e.e.e.e.e.e.!.W.W.W.W.W.W.W.W.W.W.!.W.W.W.W.W.W.W.W.W.W.W.W.W.W.W.W.W.W.W.W.W.Q.@ @ @ ",
"o o o e.e.e.e.e.e.e.e.e.e.e.e.e.e.e.e.t.p.s.i.s.i.e.e.!.W.W.W.W.W.W.W.W.W.W.W.^./././.^.^.W.W.W.W.W.W.W.W.W.W.W.W.W.W.W.Q.@ @ @ ",
"s s s t.e.e.e.e.e.e.e.e.e.e.e.e.e.>.E.=X1X1X1X1X:X).e.!.W.W.W.W.W.W.W.W.W.W.`.:X1X1X1X1X1X[.^.W.W.W.W.W.W.W.W.W.W.W.W.W.!.l l Q ",
"r.e.e.e.e.e.e.e.e.e.e.e.e.e.e.e.2.D.1X1X1X1X1X1X1X1X*X!.W.W.W.W.W.W.W.W.W.c.,X1X1X1X1X1X1X1X;X_.W.W.W.W.W.W.W.W.W.W.W.W.W.W.W.Q.",
"r.e.e.e.e.e.e.e.e.e.e.e.e.e.e.e.} 1X1X1X1X1X1X1X1X1X1X[.W.W.W.W.W.W.W.W.(.1X1X1X1X1X1X1X1X1X1XE.x.W.W.W.W.W.W.W.W.W.W.W.W.W.W.Q.",
"r.e.e.e.e.e.e.e.e.e.e.e.e.e.e._ 1X1X1X1X1X1X1X1X1X<X1X:X_.W.W.W.W.W.W.W.&X1X1X1X1X1X1X1X1X1X1X1Xd.W.W.W.W.W.W.W.W.W.W.W.W.W.W.Q.",
"r.e.e.e.e.e.e.e.e.e.e.e.e.e.e.a 1X1X1X1X1X1X1X.XA.A.A. X{.W.W.W.W.W.W.`.:XV.A.A..X1X1X1X1X1X1X1X*XW.W.W.W.W.W.W.W.W.W.W.W.W.W.Q.",
"r.e.e.e.e.e.e.e.e.e.e.e.e.e.e.%X1X1X1X1X1X1XoXC.n..Xv.B.T.W.W.W.W.W.W.{..XB.m.n.C.XX1X1X1X1X1X1X;Xj.W.W.W.W.W.W.y.W.W.W.W.W.W.Q.",
"e.e.e.e.e.e.e.j e.e.e.e.e.e.t.;X1X1X1X1X1X<X|.N.1 S.  C.'.W.W.W.W.W.W.].A.z n 1 x C.<X1X1X1X1X1X;Xj.W.W.W.W.W.W.a W.W.W.W.W.W.Q.",
"r.e.e.e.e.e.l o 0.e.e.e.e.e.e.$X1X1X1X1X1X<XZ.b.      C.'.W.W.W.W.W.W.'.C..     > C.<X1X1X1X1X1X;Xj.W.W.W.W.W.u u x.W.W.W.W.W.Q.",
"r.e.e.e.e.e.Q $ ; 2.e.e.e.e.e.4.1X1X1X1X1X1XoXC.c c c V.E.W.W.W.W.W.W.E.V.B., , b V.<X1X1X1X1X1X;Xx.W.W.W.W.u.0 @ ] W.W.W.W.W.Q.",
"r.e.e.e.e.e.! $ % ! e.e.e.e.e.' 1X1X1X1X1X1X<X|.C.C.R.Y.W.W.W.W.W.W.W.W.Y.R.M.M.C.XX1X1X1X1X1X1XU.W.W.W.W.k.q @ @ -.W.W.W.W.W.Q.",
"e.e.e.e.e.0.o $ $ $ :.e.e.e.e.e.[ 1X1X1X1X1X1X1X=XR.W.W.W.W.W.W.W.W.W.W.W.W.T.}.1X1X1X1X1X1X1X;XW.W.W.W.W.3.@ @ @ { W.W.W.W.W.Q.",
"r.e.e.e.e.0.$ $ $ $ $ ! e.e.e.e.s.$X1X1X1X1X1X1X[.W.W.W.W.W.W.W.W.W.W.W.W.W.W.{.1X1X1X1X1X1X%XU.W.W.W.W.<.@ @ @ @ ;.W.W.W.W.W.Q.",
"r.e.e.e.e.9.$ $ $ $ $ & ' e.e.e.e.t.w 1X1X1X1X[.W.W.W.W.W.W.W.W.W.W.W.W.W.W.W.W.{.1X1X1X1X1X~.W.W.W.W.2.= @ @ @ @ ;.W.W.W.W.W.Q.",
"r.e.e.e.e.q.< $ $ $ $ $ $ ' 1.e.e.e.e.>.K.#X).x.W.W.W.W.W.W.W.W.W.W.W.W.W.W.W.W._.&X%X#X_.W.W.W.W.a.6 @ @ @ @ @ @ { W.W.W.W.W.Q.",
"r.e.e.e.e.e.Q $ $ $ $ $ $ $ ; u e.e.e.e.e.e.d.W.W.W.W.W.W.W.W.W.W.W.W.W.W.W.W.W.W.W.W.W.W.W.W.W.h q @ @ @ @ @ @ # ;.W.W.W.W.W.Q.",
"e.e.e.e.e.e.! % $ $ $ $ $ $ $ $ $ 8 ,.q.0.q.f.W.W.W.W.W.W.W.W.W.W.W.W.W.W.W.W.W.W.k.k.k.k.h.+ @ @ @ @ @ @ @ @ @ t h.W.W.W.W.W.Q.",
"r.e.e.e.e.e.e.9 $ $ $ $ $ $ $ $ $ $ $ $ $ * r.x.W.W.W.W.W.W.W.W.W.W.W.W.W.W.W.W.u.+ @ @ @ @ @ @ @ @ @ @ @ @ @ # ] W.W.W.W.W.W.Q.",
"r.e.e.e.e.e.e.1.$ $ $ $ $ $ $ $ $ $ $ $ $ & ' x.W.W.W.W.W.W.W.W.W.W.W.W.W.W.W.W.u.# @ @ @ @ @ @ @ @ @ @ @ @ @ g W.W.W.W.W.W.W.Q.",
"e.e.e.e.e.e.e.e.1.; $ $ $ $ $ $ $ $ $ $ $ $ h e.x.W.W.W.W.W.W.W.W.W.W.W.W.W.W.g.@ @ @ @ @ @ @ @ @ @ @ @ @ = ] W.W.W.W.W.W.W.W.Q.",
"e.e.e.e.e.e.e.e.e.1.* $ $ $ $ $ $ $ $ $ $ $ r 2.e.k.W.W.W.W.W.W.W.W.W.W.W.W.x.u @ @ @ @ @ @ @ @ @ @ @ @ @ 7 W.W.W.W.W.W.W.W.W.Q.",
"r.e.e.e.e.e.e.e.e.e.* $ $ $ $ $ $ $ $ $ $ $ $ * e.e.W.W.W.W.W.W.W.W.W.W.W.W._ = @ @ @ @ @ @ @ @ @ @ @ @ @ 7 W.W.W.W.W.W.W.W.W.Q.",
"e.e.e.e.e.e.e.e.e.e.d $ $ $ $ $ $ $ $ $ $ $ $ $ ; ` e.s.j.j.z.W.W.z.j.j.1.d @ @ @ @ @ @ @ @ @ @ @ @ @ @ @ 5.W.W.W.W.W.W.W.W.W.Q.",
"r.e.e.e.e.e.e.e.e.e.e.u $ $ $ $ $ $ $ $ $ $ $ $ $ o u Q i.e.i.s.d.i.W d 7 @ @ @ @ @ @ @ @ @ @ @ @ @ @ @ ) W.W.W.W.W.W.W.W.W.W.Q.",
"e.e.e.e.e.e.e.e.e.e.e.e.d * * * * * O 1.9 $ $ $ $ $ $ $ $ $ $ o @ @ @ @ @ @ @ @ @ @ @ k W.8 7 7 7 7 7 k W.W.W.W.W.W.W.W.W.W.W.Q.",
"e.e.e.e.e.e.e.e.e.e.e.e.e.e.e.e.e.e.e.e.1.s $ $ $ $ $ $ $ $ $ X @ @ @ @ @ @ @ @ @ # v W.W.W.W.W.W.W.W.W.W.W.W.W.W.W.W.W.W.W.W.Q.",
"e.e.e.e.e.e.e.e.e.e.e.e.e.e.e.e.e.e.e.e.e.e.j o $ $ $ $ $ o h u.u.j @ @ @ @ @ @ u a.W.W.W.W.W.W.W.W.W.W.W.W.W.W.W.W.W.W.W.W.W.Q.",
"e.e.e.e.e.e.e.e.e.e.e.e.e.e.e.e.e.e.e.e.e.e.e.e.>.: : t 5.W.W.W.W.W.W.6.u i j h.W.W.W.W.W.W.W.W.W.W.W.W.W.W.W.W.W.W.W.W.W.W.W.Q.",
"r.e.e.e.e.e.e.e.e.e.e.e.e.e.e.e.e.e.e.e.e.e.e.e.e.e.e.f.z.W.W.W.W.W.W.W.W.~.W.W.W.W.W.W.W.W.W.W.W.W.W.W.W.W.W.W.W.W.W.W.W.W.W.Q.",
"r.e.e.e.e.e.w.e.e.e.e.e.e.e.e.e.e.e.e.e.e.e.e.e.e.e.e.j.t.e.i.z.Q.l.i.e.k.W.W.W.W.W.W.W.W.W.W.W.W.W.W.W.W.W.W.W.W.W.W.W.W.W.W.Q.",
"e.e.e.e.e.e.e.e.e.e.e.e.e.e.e.e.e.e.e.e.e.e.e.e.e.e.e.!.W.W.W.x.x.W.W.W.W.W.W.W.W.W.W.W.W.W.W.W.W.W.W.W.W.W.W.W.W.W.W.W.W.W.W.Q.",
"e.e.e.e.e.e.e.e.e.e.e.e.e.e.e.e.e.e.e.e.e.e.e.e.e.e.e.!.W.W.W.W.W.W.W.W.W.W.W.W.W.W.W.W.W.W.W.W.W.W.W.W.W.W.W.W.W.W.W.W.W.W.W.Q.",
"e.e.e.e.r.e.e.e.e.e.e.e.e.e.e.e.e.e.e.e.e.e.e.e.e.e.e.!.W.W.W.W.W.W.W.W.W.W.W.W.W.W.W.W.W.W.W.W.W.W.W.W.W.W.W.W.W.W.W.W.W.W.W.Q.",
"e.e.e.e.e.e.e.e.e.e.e.e.e.e.e.e.e.e.e.e.e.e.e.e.e.e.e.!.W.W.W.W.W.W.W.W.W.W.W.W.W.W.W.W.W.W.W.W.W.W.W.W.W.W.W.W.W.W.W.W.W.W.W.Q.",
"e.e.e.e.e.e.e.e.e.e.e.e.e.e.e.e.e.e.e.e.e.e.e.e.e.e.e.!.W.W.W.W.W.W.W.W.W.W.W.W.W.W.W.W.W.W.W.W.W.W.W.W.W.W.W.W.W.W.W.W.W.W.W.Q."
};
