/* XPM */
static const char *xpm__[] = {
/* columns rows colours chars-per-pixel */
"64 64 20 1 ",
"  c gray42",
". c #525855",
"X c #344B4B",
"o c #0B8802",
"O c #09B000",
"+ c #228C19",
"@ c #738772",
"# c #E9EA17",
"$ c #036FA4",
"% c #116A97",
"& c #6C7D86",
"* c #038DCA",
"= c #01A6FD",
"- c #20A7DC",
"; c #6CC8F8",
": c #5294B3",
"> c #878788",
", c #A8ABAD",
"< c #92C2D3",
"1 c #807F7E",
/* pixels */
"================================================================",
"=====---========================================================",
"====-###-===;;;;;;;=============================================",
"===-####,<;;;;;;;;;;;;==========================================",
"==-#######-=====================================================",
"==-#######-=====================================================",
"==-#######-============================================;;=======",
"===-#####-========================================-:>;;;;;;====:",
"====-###-========================================;<,>;;;;;;;;==>",
"=====---=========================================->.X-=========>",
"================================================== XX*========->",
"=================================================- XXX========: ",
"=================================================: .XX*======-> ",
"=========;;;;;===================================>>..XX======:> ",
"=====;;;;;;;;;;;;;==============================->  .XX*====->> ",
"====;;;;;;;;;;;;;;;;;;==========================:>   XX*===-:>  ",
"================================================>   .XXX===:>>  ",
"===============================================->    .XX*=->   1",
"===============================================:>  >> .XX-:>  1 ",
"==============================================->   >  .XX&>   1 ",
"=============================================-:>      ..XX      ",
"===========================================;;;>1   >   .XX      ",
"==========================================;;;,,,,,,,,   XXX 1   ",
"========================================;;;;<,,,,,,,,,,>.XX     ",
"===========================================->      1>>  ..XX.  1",
"===========================================:>        >   .XXX > ",
"==========================================->         >    .XX > ",
"=========================================-:>   >     >     .XX. ",
"=========================;;;;;===========:>    >     >     ..XX.",
"===================-;;;;;;;;;;;;;-======->>    >     >      .XXX",
"*****************;;;;;;;;;;;;;;;;;;****->>     >     >      ..XX",
"***************************************&>>>    >     >       ...",
"***************************************>1>    >>    >>     >    ",
"**************************************>>>>    >     >      >    ",
"***$.$****:<:***********$$$*****$$$**&>>>     >     >     >>    ",
"%X$%..$$:<<<,<::<:$$$$$$$$$$$$$$$$$$&> >>     >          >>     ",
"%X%X.X%:,,:<,::::::::$$$$$$$$$$$$$$%>  >     >>          >>     ",
"%X%..X%%..%%.%$$$$$$$$$$$$$$$$$$$$%&> >>    >>           >>     ",
"%.....%X.X%%..$$$$$$$$$$$$$$$$$$%%&>>>>    >>     >      >>     ",
"......%X...%..%$$$$$$$$$$$$$$$$%&>>>>>     >     >>       >     ",
"..... ........X%$$$%%%$$%%$$%%.  >>        >      >       >>    ",
"   .. ....  ..X%.%%&   &   >&   >>         >      >        >    ",
"    .   ..  ..... &       >>>  >          >>      >>       >>>  ",
"    .   .   .....  . @.    1   >         >>        >>     >>>>  ",
"    .   .     ..+oooo+ooooo+o+@1      >>>>        >>      >     ",
"                .+oooooooooooo++o++   @  ... ..+o+@ .   >>>     ",
"....  ..    .... .oooOOOOOooooOOOOOO+++.+oooooooooooo+  >       ",
"ooooooooooooooooooooOOOOOOOOOOOOOOOOOOOOOOOooooooooooo+@ .     .",
"oooooooooooooooooooOOOOOOOOOOOOOOOOOOOOOOOOOoooooooooooooooooooo",
"ooooooooooooooooooOOOOOOOOOOOOOOOOOOOOOOOOOOOOoooooooooooooooooo",
"ooooooooooooooooooOOOOOOOOOOOOOOOOOOOOOOOOOOOOOooooooooooooooooo",
"OOoooooooooooooooOOOOOOOOOOOOOOOOOOOOOOOOOOOOOOOoooooooooooooooo",
"OOoooOOooOooooooOOOOOOOOOOOOOOOOOOOOOOOOOOOOOOOOOOoooooooooooooo",
"OOOOOOOoOOooooooOOOOOOOOOOOOOOOOOOOOOOOOOOOOOOOOOOOOOooooooooooo",
"OOOOOOOoOOooooOOOOOOOOOOOOOOOOOOOOOOOOOOOOOOOOOOOOOOOOOooooooooo",
"OOOOOOOOOOOOooOOOOOOOOOOOOOOOOOOOOOOOOOOOOOOOOOOOOOOOOOOoooooooo",
"OOOOOOOOOOOOOOOOOOOOOOOOOOOOOOOOOOOOOOOOOOOOOOOOOOOOOOOOOooooooo",
"OOOOOOOOOOOOOOOOOOOOOOOOOOOOOOOOOOOOOOOOOOOOOOOOOOOOOOOOOOOooooo",
"OOOOOOOOOOOOOOOOOOOOOOOOOOOOOOOOOOOOOOOOOOOOOOOOOOOOOOOOOOOOoooo",
"OOOOOOOOOOOOOOOOOOOOOOOOOOOOOOOOOOOOOOOOOOOOOOOOOOOOOOOOOOOOOOoo",
"OOOOOOOOOOOOOOOOOOOOOOOOOOOOOOOOOOOOOOOOOOOOOOOOOOOOOOOOOOOOOOOO",
"OOOOOOOOOOOOOOOOOOOOOOOOOOOOOOOOOOOOOOOOOOOOOOOOOOOOOOOOOOOOOOOO",
"OOOOOOOOOOOOOOOOOOOOOOOOOOOOOOOOOOOOOOOOOOOOOOOOOOOOOOOOOOOOOOOO",
"OOOOOOOOOOOOOOOOOOOOOOOOOOOOOOOOOOOOOOOOOOOOOOOOOOOOOOOOOOOOOOOO"
};
