/* XPM */
static const char *xpm__[] = {
/* columns rows colours chars-per-pixel */
"64 64 19 1 ",
"  c #5736F5",
". c #603CFB",
"X c #5153FD",
"o c #6D51FD",
"O c #6F6AFC",
"+ c #5D61FA",
"@ c #8E68FD",
"# c #AE6FFD",
"$ c #8858FA",
"% c #C277FE",
"& c #FDFD98",
"* c #F2F0AB",
"= c #DFD5B9",
"- c #8C87FB",
"; c #AFA2E9",
": c #D1CEF9",
"> c #E2DDD3",
", c #CCACDB",
"< c #7C81FA",
/* pixels */
"                                                                ",
"                                                                ",
"                                                                ",
"                                                                ",
".        ......     .   ....          ........       .....      ",
"................................................................",
"................................................................",
"................................................................",
"..............................................oooo..............",
".............................................oooooo.............",
"....................o...........o.....ooo...oooooooo............",
"...oooooo...........ooo.o........oooooooooooooooooooo...........",
"...ooooooo............oooo.....ooooooooooooooooooooooo.......ooo",
"ooooooooooooo.oooo.oooooooo.ooooooooooooooooooooooooooooo.oo.ooo",
"oooooooooooooooooooooooooooooooooooooooooooooooooooooooooooooooo",
"oooooooooooooooooooooooooooooooooooooooooooooooooooooooooooooooo",
"oooooooooooooooooooooooooooooooooooooooooooooooooooooooooooooooo",
"oooooo$$$ooo$ooooo$$o$oooooooooooooooooooooooooooooooooooooooooo",
"ooo$$$$$$$o$o$$$$$$$$$ooo$oooooooOOo$ooooooooooooooooooooooooooo",
"ooo$$@@$$$$$$@@$$$$$@@$$$$$$ooooOOOOoooooooooooooooooooooooooooo",
"oo$$@###$$$@###@$$$$@@@@@@$o$$$$$OOOoooooooooooooooooooooooooooo",
"$$$@######@#####@@@@@@@@@@@@$$$$$$OOooOoOOOoooo+ooooooooooooX+++",
"@@##########%%######@@@@@@@@$$$$$$OO$@$$@@Oooooo++++o+o+ooo+++++",
"##########%%%%%%###@@@@@@@@@@$$$$$$@@@$@@OOooooo++++++++++++++++",
"=,###########%%%%%##@@@@@@@@$$$$@@@$$OOOOoOooooo++o+++++++XXX+++",
"&&=##########%%%%%%#@@@@@@@$@@@#@@$OOOOooOOOOoooo+o++++++X;,;XXX",
"&&&,##########%%%%#%#@@@@@@@@####@$OOOOOooOOOOoooooo+++++;&&&,-;",
":>&&***,######%%%##%%###@@@@$$@####@OOOOooOOOOoooooooo+OO&&&>::=",
"::>*&&&&,###########%######@@@@$@@##@OOOOOOOOooooo++o+-&,**O::--",
":::::*&&,#############@######@@$$$$@#@@@@$$OOoooooo+o=&&&>;,&,-;",
":::::*&,#######################@@$$$$$$$$$$@@OOoooooO=&=*==&>-;;",
":::>:*,,########################@@@@$OOOOOOOOOOOOOo;&*&=**=,----",
"::::>&==*###%%%%##################@$$OOOOOOooooooo=&&&=-O*=;@---",
":::>&*,*&%,%#%%%#################@@$OOOOOOOOOoOooo;&&&&==*;--@OO",
":>>&&**&*,&=%#%%%##########@#######@@@$OOOOOOOOOo;=*&=**=;@-@OOO",
":>&&&&&&&&&&=%#%%%########@@@@#######@@@$OOOOOOOo=&&=@,>----OOO+",
":::*&&&&**&&&,##%%%########@@@@@@@@@#@$@@$OOOOOo;&&&*;@;-@OOOO++",
":>>:&&&&**&&,###%%%###########@@@@$$@$$OOOOOOO@*&&&;;--@OO+++X+X",
":*&*&&&&&&*#=*#%##################@$$OO$$OoOO@**=&=-----OXXXXXXX",
"::>*&&&>*,,,**%#,=,################@@@$$o@,,@O**------++XXXXXXXX",
"::::&>*&*#,&&&,#=&&=#################@@o;&*-o;,==;--@O++O-;<XXXX",
"::::*::*&=&&&&,;&&&*==################@$@-@OO;=;,;-@X+<---;:;+XX",
">>::::::*&*>&&*==*&*=&*###########@@@###@@o;&*,=--OOOOOOOOO-OOXX",
":::::::::***&&&&==*,;&&*#####;###@@$$$@@$$@=*==;-O+OOOOOOOOOOO+X",
":>>:>>>>>>:>*&&&&&***&&&;###,&*,###$@$oOo-;,-@--@XOOOO+++X+OXXXX",
">>>>>>>>>>>>>>&&&&&&&&&&=###@,&=;###@@,>>:O+OOOO+OOO+++XXXXXXXXX",
"::::::::::::::>:>**:>*=&&=#;=,###;;##*,,>;OOOOOOOO+X+XXXXXXXXXXX",
":::::::::::::::::::::>*&&=#,=&*@@#,*,;@---@OOO+O++XXXXXXXXXXXXXX",
"::::::::::::::::::::::*==,@#=&*#,*,,=----@@OO+X+XXXXXXXXXXXXXXXX",
":::::::::::::::::::::>*==,#=;#@;=-@@@---@OOOO+++XXXXXXXXXXXXXXXX",
":>>>>>>>>>>>>>>>>>>:*&*&=**&&,@-@OOOOO---@OOO+XXXXXXX+O<<<<+XX+O",
":>>>>>>>>>>>>>>>>>:>&&&&&****&*---OOOO----OOO+XXXXXXO-------OO--",
"::>>>>>>:>>>>>>>::>&&&&&&*::>&&,:>OOOO-@OOOOXXXXXXXO-------O<--<",
"::::>::::::::::::::&***>*:::>>>::>>,@-@OOOOOXXXO+O<------O+<----",
":::::::::::::::::::*>>>>::>:::::>>***>-OOOO+XX+O-------O++<-<---",
"::::::::::::::::::::::::::>>>:::::>:>>*>-+O+XXX<-----O+XX<-<----",
":::::::::::::::::::::::::::>>>:::::;-;>>:OXXXXXXO<<--+XXO---O<-+",
":::::::::::::::::::::::::::>>>:::;--@@---OXXXXXXX+--+XXX---OO<+X",
":::::::::::::::::::::::::::>>>::;---@+++++++XXXX+<<O+++--O+XO+XX",
":::::::::::::::::::::::::::>>::-@-OOO++++++XXXXXO<+XX++++XXXXXXX",
"::::::::::::::::::::::::::>>>::;--++++++++XXXXXXOXXXXXXXXXXXXXXX",
"::::::::::::::::::::::::::>;::;--O++++++XXXXXXXXXXXXXXXXXXXXXXXX",
"::::::::::::::::::::::::::*:;;@OOO+++++XXXXXXXXXXXXXXXXXXXXXXXXX",
"::::::::::::::::::::::::::,;;-O++++++XXXXXXXXXXXXXXXXXXXXXXXXXXX"
};
