/* XPM */
static const char *xpm__[] = {
/* columns rows colours chars-per-pixel */
"64 64 18 1 ",
"  c #2A5234",
". c #3B6233",
"X c #527434",
"o c #304A54",
"O c #586A6C",
"+ c #698932",
"@ c #6E9030",
"# c #6D8A4C",
"$ c #88AA2A",
"% c #ACB750",
"& c #537187",
"* c #3687B0",
"= c #5A98AF",
"- c #70B5C8",
"; c #B1B7AB",
": c #9ECBC9",
"> c #D5E4D9",
", c #F7F6E6",
/* pixels */
"************************=,,==***********************************",
"**********************==>,,,>=**********************************",
"***************=====*=>,,,,,>===************************==******",
"**************=>,,,>->,,,,,,>->>==*********************=>>=*****",
"**************=,,,,,,,,,,,,,,,,,,>=*==****************=>,,>=****",
"*************=>,,,,,,,,,,,,,,,,,,,>->>==*************=>,,,,>=***",
"**********==*=,,,,,,,,>,,,,,,,,,,,,>->-:*************=,,,,,,>===",
"*********=>>==,,,,,,,,>>>,,,>,,,,,,,>>:-==***********=,,,,,,,,,,",
"********=>,,,,,,,,,,,>>,>:::>,,,,,,>,>>>>>=**********=,,,,,,,,,,",
"*******=>,,,,,,>,,,,,,,,::::>>,,,,,>>>>:::>=*******===,,,,,,,>>>",
"*******=>,,,,,,>>>,,,,>>>>>>>>,>>,>>:>:::::=****==->>-,,,,,>>>>>",
"*******=-,,,,>>,>::,,>>>>>>,,,>>>,>:>:::::>=*====->,,,,,,,,>>:>:",
"***=*====>,,,>:,:::::>>>>>,,,>>>>::>::::::-*===-->,,,,,,,,,,>:::",
"=========-,,,,>>::::::>>>,,,,,,>>>:::::>-=====->,,,,,,,,,,,,::::",
"**======--,,,,,:::,,,:>>>>,>>>,>>>:::::-=====->,,,,,,,,,,,,>>:>:",
"=======->>>,,,,:::,,,>,>>>>>>,,>>:::>-======->,,,,,,,,>,,,>>>>>>",
"====-=->=&=>,,>>,>>,,>>>>>>,,,,,>::>-=======->,,,,,,,>>,>>::::>>",
"===->;;;&&&>,,>,,>>>>>>:>,,,,,,,::>-=========->,,,,,,,,,,,>:>>>>",
"==->,>;;&&&>,,,>>>:>:>::,,,,,:::::-===-=--=---:,,,,,,,,,,::>::>>",
"=->,,;=;&o&>,,>>>>:>:::::,,::::::-====-=---->,,,,>>>>,>>:::::>>>",
"->,,,;&;;o&,,>%;::::::::::::::::-=======--->,,,>%####>,:::::::>:",
",,,,,;=;&o&>,>##:>::::::>---------==-====->,,%%$@XX%+=>::::::>:-",
">,,>,>;;&o&;;%%X;:::::>-------------------,>%$$$+.X. &::::::>:--",
":>>,,>;;&&&;;$O.;::>:-----------------:---;;;#$%#X  .&:::::::---",
"::,,>;=;&&&;=$OO::::----------------:>>:-:;;;;$%;Oo.%=::::>:-:::",
";;;==;;;&&&;;%;%-------------------:>,,>:>>;;;$#$Oo o&>>:>:-:>,,",
";=;&&;;=Oo&;;%==------------------:>,,,,,,;=;;$O@OoOo&-:---:>,,,",
";=;&&;=;OO&;;=&&------------------:>,,,,,,;=;;%O$OoOo&----:>,,,,",
";&;&&;&;;&&;;;&&-------------------:,,,,,,;=;=;;%OoOo&---::>,,,,",
";O;&O;&;&o&;=;O&&&&-----:----:---::>,,,>>,;=;&&=;&&&o&--:>>:,,,,",
";;;&o;;;&o&;&;OO&&&-------=----:--::>>>>::=;;=;&;&&&o&--:,>,,,,>",
";&OOo;;;&o&;=;OO&&&-::--&&&-::::::--:>>:::=;;;;&&&&&&&-:>>,,>:::",
";O#oo;=;&o&;;;oOo&&;;;&&&&&--::::::--::::>=;=;=;&&o&&&-:>>>,,>:>",
". . o;;;&Oo=;;OOo&;;;;&&&&&-::::::::::::::;;;=;=;&o&&&-::>>:::::",
"     X;=&oo;=&oOo&=;;=;O&&&-:::::::::::::-&O;&;;&OoOo&-::-###-::",
"     .;;OO&&;OOoO&&;=&Oo&&&-:::-:::::::::-&o&&;=O    O-:-#XX+#::",
"   XX .#+XOO&&&&Oo&;;;&oO&&-::&&--:::::::-&o;O;#X.  .X##=.X.+#--",
"    ..@XX++XOOOoX#;;;;&o&&&;;;&&&&-::::::%OoOoOXX@@X@+.+@+$+$$##",
"    @$@..+@X@@@  X#;;;ooO&;;;;&o&&%%:::-%$OOO +X@$@@$X.@+$$$@@+X",
"XX+.$$. @$$@.    X+#.. XX+#;;=&o&&%%$$$$$$Oo  .@@@$@X.X+X@$$+.  ",
"  ..@$@.X$$$@     X   .@@$$$#;;OOO%%$$$$@@O+@.@$X$$@. .X@@$$@   ",
"  X .@X@$$$$@  X   .+.@$$$$@..#+#O$$$$@.. .+$@X$$$$$.XX.+$$@.   ",
" XX  .@$$$@X  X.   +.@$$$$$$. +$$++$$$+.X.X+$$$$$@X@X.  .$$.    ",
"  .X.X@$$$X+  .@       .@$$$++$$$$++@$+X+X++$$$$.. .X+X .$$   .@",
" X .XX. .@    @$.       .@@$$$$$$$$++++X+++$@$$$+XXX+$$++$$.X.X+",
" XXX.X. X@.X  .$$$@.+.X  +$$$$$$$$$+XX+X+$$$$@+@$@$$++@$$$$@+X++",
" ++++$@+++X+  .$$$$@.@+X+$$$$$$@$$+++++++$$$$$$$$$$+++$$$$$%@++$",
"+@@$$$$++++@+X+$$$$@.X++@$$$$$@@@++$$++@$++$$$@$$$@++@++$$$@$@@$",
"$@$$$$$++++++++$@++. X++$$$$+++++++$$++%$++@@$@$$$%@++++$@++$$%@",
"$@%$$$$@+@@++$+$$+XX+++$+++++X+++++$@++++@$$$@$$$@@$$+++$++++$@+",
"@$$$$$$$$@%++$@$$$++$$@$+X+++++$$++$%+X++++++$$$$+$;;##$@$$+X@$+",
"$$$$@$$$@++X+@+++$+@++@+++++++$$@+++$++@+@++++++@+O;;;;;%$$$@X@+",
"$@$+++@$$+X.X.XX+++++++++%@+++$@@++++$$+++@%+X+++#oO;;;;;;$$$@.X",
"+$++@++$+X.X.XX.XXX.X++++++++@++++++++++++++++++$;;oOOO=;;OX+XXX",
"+@++++++XX   +. X.X.XXXX++XXX++++++XXXX++++XXXX#;;;OoOOOOOo XX.X",
"++++++@X.X     X.X.XX.X.X+++XX+++%+X.X.X+###..#;;;&OOoOOOOoo  XX",
"XXX+%XX  X    . X.X.    .+%+X+++++X.XXX+X;;;;;;;;&OOOoOOOOOoo . ",
"+X.XXX.   X     .X.X   XX...XX++X.X  X#;oOOOO&;;;;OOooOOOOOOo   ",
"XX.XXXXX     .  .  XXXXXX    XXXX .X X;=OoOOOOOOOooOOoXOOo Oo   ",
" XX.X.           .  X.X       X   X .;=OOooOOOOOoOOo   OoO o    ",
"  XX.X            X.X      XX       XOOOooooooooOOOO     O .    ",
"    X.X            X             X.XX.OoOOo     X.     X        ",
"    XX                 .         XXX.O  oo     O.O O            ",
"    XX                              XX         OO               "
};
