/* XPM */
static const char *xpm__[] = {
/* columns rows colours chars-per-pixel */
"64 64 19 1 ",
"  c #13141D",
". c #161823",
"X c #2A2838",
"o c #47383B",
"O c #644F38",
"+ c #323342",
"@ c #394449",
"# c #535157",
"$ c #6C615B",
"% c #6F635B",
"& c #946247",
"* c #BA6644",
"= c #BB935F",
"- c #F3924F",
"; c #FEA455",
": c #DCA260",
"> c #FBCA72",
", c #F2E6AB",
"< c #FBFBC3",
/* pixels */
"@@@@@@@@@#######$############################################@@@",
"@@@@@@@@#######$:$$$$$$########$$$$$#$$$$$$###################@@",
"@@@@@@########$:;>>>>>:$$$$###$=:::=&=::::=$##################@@",
"@@@@@@@@@@@###$:;;;;;;;>>>:$###$$$$$=$$$$$$###############@@@@@@",
"@@@@@@@@@@@####$:;;;;;;;;;;:$$$#####$#####################@@@@@@",
"@@@@@@@@#@######$:;;;;;---;;>>:$$$########$$#################@@@",
"@@@@@@@@@@@###$$#&----:$$$:;;>;--=$######$::$$$$$$####$####@@@@@",
"@@#@@@@######$:=&::$$$$###&-;;--:$########$$:>>>>:$$$$=$###@@@@@",
"###########$$=:&=:$####$$$:;;:$$$##########$:;;;>>>>>:$####@@@@#",
"#########$$:=$$#$$##$$$:>>>;:$##############$:;;;;;;:$####@@@@##",
"$#######$:-:$######$:>>>>>>;&################$::&:-:$####@@@@#@@",
":$$$$$$$:>;&######$:>>>>>>>>:$################$$#$$$#####@@@@@@@",
">>>>>>>>>>>:$#####$:>>;>>>>>>:$#######$$###############@@@@@@@@@",
"$>>>>>>>>>>:$######$:-;;;;;;>>:$$$###$::$$$###########@@@@@@####",
"$:;;-:::-;-:$#######$$:-;;;;;>>>>:$$$:>>>>:$######@@@#@@@@@@@@##",
"#$$=$$$$$=$$##########$$:--:$$:>>>>>>>>>>>>:$#####@@@@@@@@@@####",
"###$#####$##############$$$$##&-;>>>>>>>>>>:$#######@@@@@@@#####",
"#############################$:;;;;;;;;>>;:$#$$$################",
"#############$$$$$$$$$$$$$###$-;;;;;;;;;;-&$$=:=$###############",
"###$$$#$$$$$$:>>>>>>>>>>>:$$$:;;;;;;;;;;;-::=$$$################",
"##$=:=$=:::>>>>>>>>>>>>>>>---;;;;;;;;;;;-&$$$###########$$##$###",
"###$$$#$$$;>>>>>>>>>>>>>>;;;;;;>,<<,>;;;;-:$#$$$$$$###$$::$$=$$#",
"#####$$##$>>;>>>;;;;;>>;;;;;;>,<,,<,,,>;;;;:&:>>>>:$$$=&-;--;-:$",
"#$$$$::$$:;;;;;;;;;;;;;;;;;;><<,##=#$,<>;;;;>>>>>>>>:-;-;;;;;;;-",
"$:---;;--;;;;;;;;;;;;;;;;;;;,<<<,,$,,<<,;;;;;>>;;;>;;;;;;;;;;;;;",
"-;;;;;;>>>>;;;;;;;>>>>>;;;;><<<<<<,<<<<<>;>>>>;;;;;;;;;;;;;;;;;;",
";;;;;>>>>>>>;;;>>>>>>>>>;-;,<<<<<<<<<<<<<>>>>>>;;;;;;;;;;;;;;;;;",
"-;;;;;>>>>;;;;;;>>>>>;;;-O*$,<<<<<<<<<<<,>>>>>;;;;;;;;;>>>;;;;;;",
"#:>>;>;;;;;;;;;;;;;;;;;;;=O,<<<<<<<<<<<,#O=OO>>;;;;;;;>>>>>>;;;;",
"X#>>>>>>;;---;;--;;;;;;;;;:,<<<<<<<<<<<<,:O:>>>>;;;;;;;;;>>;;;;;",
"XX-;>>>;;-OXo=-Oo-;;;;;;;;;><<<<<<<<<<<<>>>>>>>;;;;;;;;;;;;;;;;;",
"XX-;;;;;-oX  o=OX*-;-;;;;;;;,<<<<<<<<<<<>>>;;;;;;;;---;;;;;;;;;;",
"Xo-;;;;;=XX  .=O..o*&-;;;;>>><<<<<<<<<,>>>>;;;;;;;:#o#-;;;;-----",
"XX*----*o.X  .*X   .O:;;>>>>>><<<<<<<,>;;>>-------#XXX*---------",
"XXo---*o .X. .XX.   X=:>>>>>>>>>,,,,>;------O#oo--oXXX#---------",
"XXo--oXXXXXXXXXXXXXXXoOOO$>>>>--;;;;---------*oX**oXXXo---------",
"XX*--X.  .X.XX.X.. .X.. .O-------------------*oXoXXXXo**--------",
"XXo*-X    XX**.XX*. X. .XO----------------O-*oXXXXXXX*oo*-------",
"XXXo*X    X o*XXX*X.X..**O*--------------*o*ooXXXXXXX&o@$&&&&***",
"XXXo*X    X .*XXX*X X X**O*-----***-*--**oXXX&&o&o+XXo$$$$$$%$&*",
"XX+$&X.. .X....X....X..*&o**&&&&%&*****ooX+X+$$$$$+X+#$$$$$$$$$$",
"XX#$$XXXXXXXXXXXXXXXXXXXX+$$$$$$%$$$$$@XXX#$$$$$$$+XX+@@$$#$##$$",
"XX+##X....X....X....X....o$$$#$$%%$$$#+XXX++@@@##@XXXXX+$$$#@@#$",
"XXX+#XXXXXXXXXXXXXXXXXXXXo$$$$#$%%$$$$#@XX#XX@@@+XXXXXXX@#$@@@@@",
"XXX@@X....X....X. ..X....o$#@@#$#%%$$###+XXX@@@@#+XXXX++@@@@@@@@",
"XXX+@X    X   .X    X.X.+#$@@@##$%%$$@++XX+XO#@#$+XXXX+#@@@@@@@@",
"XXX+@X  ..X....X.. .X.XX#+@#O##$##$$##++XXX@####@XXXXX+@@#@@#@@@",
"XXX$#X.oX.X.XX.X.XX.X.X.OX@@###O#@##@oO++Oo&&&&&+XXXXXXX@OooO##@",
"XXX&#X@O@.X.+@@X.+X.X.X..+@#&&O##oOOOoo++X&&&&O&o+XXXXXXX#Ooo#O#",
"XX&&&o##XX@XXX@XXXX+XX@XXX#&&&O&&O&&&&&oXo&&&&&&&o+XXoOo#&&&O##@",
"X#O&&&O&&#OOOOoo&&O&&&OO&&&&&&&&&&O&&&&&&&&&OO&&&&&&&&&#&&&&&&o+",
"OOOOO&OO&OOO&&&&&&&&&&O&&&&&&O&&&OO&OO&&&O&&OO&&&&&O&&&&&&&&&&&X",
"oOoooOOO&OOO&&&&O&OO&O&&&&O&&OO&&OO&OOOOO&O&OOOOO&&OOO#&OOOO&&Oo",
"++ooX.XoooooooOOXXOO&o&&&OOO&OOOOOO&O&OOO&OOOOOOOOOOOOOOOOOOOOOo",
"+++XX.XX.X+OXooXXXXOoOOO&OoOOoOoOOooXoOoOOoooooooooooooOOOOooooo",
"XXXXXXX. XX++OOXXXXXXXXXoXooXXXXXooXXXoXOooXXXXXoXXXXXXoooXooXXX",
"XX.XXXX..XX+XXXX.XXXXXXXXXXXXXXXXXooXXXXXXXXXXXXXXXXXXXXXXXXXXXX",
"XX.XXXXXXXXXX..X.XX+XXXXXXXXXXXXXXXXX.XXXXXXXXXXXXX.XXXX...XXXXX",
"  .XXXXX.  .     .XXXXXXXXXXXXXXXXXXXXXXXXXXXXX...  XX.XX .XXXXX",
"  ..XXX.  .X      X.X.XX.X.  .XXXXXX.XXX.XX..XXX..      ..XXX..X",
" .. .XX...X.        XXXX .. .XXX.  ....          .      XX .X ..",
"        .X.          .XX.X. XXXX    .XX    .     XXX    XX      ",
"                   .   .X   X.                    .     ..      ",
"   X                                                   X.X      "
};
